<svg width="89" height="89" viewBox="0 0 89 89" fill="none" xmlns="http://www.w3.org/2000/svg">
<g filter="url(#filter0_d_70_14)">
<path fill-rule="evenodd" clip-rule="evenodd" d="M4.3335 40.3984C4.3335 60.3716 18.8397 76.9803 37.8119 80.3482V51.3325H27.7684V40.1741H37.8119V31.2454C37.8119 21.2019 44.2833 15.6244 53.4363 15.6244C56.3355 15.6244 59.4624 16.0696 62.3616 16.5149V26.7827H57.2294C52.3181 26.7827 51.2033 29.2367 51.2033 32.3636V40.1741H61.9164L60.132 51.3325H51.2033V80.3482C70.1755 76.9803 84.6817 60.375 84.6817 40.3984C84.6817 18.1788 66.6034 0 44.5076 0C22.4118 0 4.3335 18.1788 4.3335 40.3984Z" fill="#FDB833"/>
<path d="M84.1817 40.3984C84.1817 59.9207 70.1532 76.1854 51.7033 79.7471V51.8325H60.132H60.5584L60.6257 51.4114L62.4101 40.2531L62.5027 39.6741H61.9164H51.7033V32.3636C51.7033 30.8429 51.9778 29.5997 52.7483 28.7327C53.5089 27.877 54.8489 27.2827 57.2294 27.2827H62.3616H62.8616V26.7827V16.5149V16.0858L62.4375 16.0207C59.5408 15.5758 56.3787 15.1244 53.4363 15.1244C48.7591 15.1244 44.7193 16.5508 41.8456 19.3078C38.9685 22.068 37.3119 26.1126 37.3119 31.2454V39.6741H27.7684H27.2684V40.1741V51.3325V51.8325H27.7684H37.3119V79.7471C18.862 76.1854 4.8335 59.9174 4.8335 40.3984C4.8335 18.4523 22.6906 0.5 44.5076 0.5C66.3246 0.5 84.1817 18.4523 84.1817 40.3984Z" stroke="#172A3A"/>
</g>
<defs>
<filter id="filter0_d_70_14" x="0.333496" y="0" width="88.3481" height="88.3481" filterUnits="userSpaceOnUse" color-interpolation-filters="sRGB">
<feFlood flood-opacity="0" result="BackgroundImageFix"/>
<feColorMatrix in="SourceAlpha" type="matrix" values="0 0 0 0 0 0 0 0 0 0 0 0 0 0 0 0 0 0 127 0" result="hardAlpha"/>
<feOffset dy="4"/>
<feGaussianBlur stdDeviation="2"/>
<feComposite in2="hardAlpha" operator="out"/>
<feColorMatrix type="matrix" values="0 0 0 0 0 0 0 0 0 0 0 0 0 0 0 0 0 0 0.25 0"/>
<feBlend mode="normal" in2="BackgroundImageFix" result="effect1_dropShadow_70_14"/>
<feBlend mode="normal" in="SourceGraphic" in2="effect1_dropShadow_70_14" result="shape"/>
</filter>
</defs>
</svg>
