<svg width="73" height="72" viewBox="0 0 73 72" fill="none" xmlns="http://www.w3.org/2000/svg">
<g filter="url(#filter0_d_50_128)">
<path fill-rule="evenodd" clip-rule="evenodd" d="M0.436157 36.201C0.436157 54.099 13.4352 68.982 30.4362 72V45.999H21.4362V36H30.4362V27.999C30.4362 18.999 36.2352 14.001 44.4372 14.001C47.0352 14.001 49.8372 14.4 52.4352 14.799V24H47.8362C43.4352 24 42.4362 26.199 42.4362 29.001V36H52.0362L50.4372 45.999H42.4362V72C59.4372 68.982 72.4362 54.102 72.4362 36.201C72.4362 16.29 56.2362 0 36.4362 0C16.6362 0 0.436157 16.29 0.436157 36.201Z" fill="black"/>
</g>
<defs>
<filter id="filter0_d_50_128" x="-3.56384" y="0" width="80" height="80" filterUnits="userSpaceOnUse" color-interpolation-filters="sRGB">
<feFlood flood-opacity="0" result="BackgroundImageFix"/>
<feColorMatrix in="SourceAlpha" type="matrix" values="0 0 0 0 0 0 0 0 0 0 0 0 0 0 0 0 0 0 127 0" result="hardAlpha"/>
<feOffset dy="4"/>
<feGaussianBlur stdDeviation="2"/>
<feComposite in2="hardAlpha" operator="out"/>
<feColorMatrix type="matrix" values="0 0 0 0 0 0 0 0 0 0 0 0 0 0 0 0 0 0 0.25 0"/>
<feBlend mode="normal" in2="BackgroundImageFix" result="effect1_dropShadow_50_128"/>
<feBlend mode="normal" in="SourceGraphic" in2="effect1_dropShadow_50_128" result="shape"/>
</filter>
</defs>
</svg>
