<svg xmlns="http://www.w3.org/2000/svg" width="64" height="66" fill="none" viewBox="0 0 64 66">
  <g filter="url(#a)">
    <path fill="#FDB833" fill-rule="evenodd" d="M32 2.5C16.812 2.5 4.5 14.813 4.5 30c0 15.188 12.313 27.5 27.5 27.5 15.188 0 27.5-12.313 27.5-27.5C59.5 14.812 47.187 2.5 32 2.5ZM30.75 15a2.5 2.5 0 0 0 0 5H32a2.5 2.5 0 0 0 0-5h-1.25ZM27 25a2.5 2.5 0 0 0 0 5h2.5v7.5H27a2.5 2.5 0 0 0 0 5h10a2.5 2.5 0 0 0 0-5h-2.5v-10A2.5 2.5 0 0 0 32 25h-5Z" clip-rule="evenodd"/>
  </g>
  <defs>
    <filter id="a" width="68" height="68" x="-2" y="0" color-interpolation-filters="sRGB" filterUnits="userSpaceOnUse">
      <feFlood flood-opacity="0" result="BackgroundImageFix"/>
      <feColorMatrix in="SourceAlpha" result="hardAlpha" values="0 0 0 0 0 0 0 0 0 0 0 0 0 0 0 0 0 0 127 0"/>
      <feOffset dy="4"/>
      <feGaussianBlur stdDeviation="2"/>
      <feColorMatrix values="0 0 0 0 0 0 0 0 0 0 0 0 0 0 0 0 0 0 0.25 0"/>
      <feBlend in2="BackgroundImageFix" result="effect1_dropShadow_121_22"/>
      <feBlend in="SourceGraphic" in2="effect1_dropShadow_121_22" result="shape"/>
    </filter>
  </defs>
</svg>
