<svg width="90" height="89" viewBox="0 0 90 89" fill="none" xmlns="http://www.w3.org/2000/svg">
<g filter="url(#filter0_d_70_12)">
<path d="M44.8889 27.0085C37.5121 27.0085 31.4921 33.0286 31.4921 40.4056C31.4921 47.7825 37.5121 53.8026 44.8889 53.8026C52.2657 53.8026 58.2857 47.7825 58.2857 40.4056C58.2857 33.0286 52.2657 27.0085 44.8889 27.0085ZM85.0693 40.4056C85.0693 34.8578 85.1196 29.3603 84.808 23.8225C84.4965 17.3903 83.0291 11.6817 78.3257 6.9782C73.6122 2.2646 67.9137 0.807303 61.4817 0.495743C55.934 0.184183 50.4366 0.234435 44.8989 0.234435C39.3513 0.234435 33.8539 0.184183 28.3162 0.495743C21.8841 0.807303 16.1757 2.27465 11.4722 6.9782C6.7587 11.6918 5.30143 17.3903 4.98988 23.8225C4.67832 29.3703 4.72858 34.8678 4.72858 40.4056C4.72858 45.9433 4.67832 51.4508 4.98988 56.9886C5.30143 63.4208 6.76875 69.1294 11.4722 73.8329C16.1857 78.5465 21.8841 80.0038 28.3162 80.3154C33.8639 80.6269 39.3613 80.5767 44.8989 80.5767C50.4466 80.5767 55.944 80.6269 61.4817 80.3154C67.9137 80.0038 73.6222 78.5365 78.3257 73.8329C83.0392 69.1193 84.4965 63.4208 84.808 56.9886C85.1296 51.4508 85.0693 45.9533 85.0693 40.4056ZM44.8889 61.0187C33.482 61.0187 24.2761 51.8127 24.2761 40.4056C24.2761 28.9984 33.482 19.7924 44.8889 19.7924C56.2958 19.7924 65.5017 28.9984 65.5017 40.4056C65.5017 51.8127 56.2958 61.0187 44.8889 61.0187ZM66.3459 23.7622C63.6826 23.7622 61.5319 21.6115 61.5319 18.9481C61.5319 16.2848 63.6826 14.134 66.3459 14.134C69.0092 14.134 71.1599 16.2848 71.1599 18.9481C71.1607 19.5805 71.0368 20.2069 70.7951 20.7913C70.5535 21.3758 70.1989 21.9068 69.7517 22.354C69.3045 22.8012 68.7735 23.1557 68.1891 23.3974C67.6047 23.639 66.9783 23.763 66.3459 23.7622Z" fill="#FDB833"/>
<path d="M28.3162 80.3154C21.8841 80.0038 16.1857 78.5465 11.4722 73.8329C6.76875 69.1294 5.30143 63.4208 4.98988 56.9886C4.71634 52.1265 4.7217 47.2877 4.72708 42.4313C4.72783 41.7565 4.72858 41.0812 4.72858 40.4056C4.72858 39.7298 4.72783 39.0546 4.72708 38.3799C4.7217 33.5253 4.71634 28.6933 4.98988 23.8225L28.3162 80.3154ZM28.3162 80.3154C33.187 80.5889 38.019 80.5835 42.8735 80.5782M28.3162 80.3154L42.8735 80.5782M66.3453 24.2622C63.4062 24.2619 61.0319 21.8874 61.0319 18.9481C61.0319 16.0087 63.4065 13.634 66.3459 13.634C69.2852 13.634 71.6596 16.0083 71.6599 18.9475L66.3453 24.2622ZM66.3453 24.2622C67.0435 24.2631 67.735 24.1262 68.3802 23.8595C69.0254 23.5927 69.6116 23.2012 70.1053 22.7075C70.599 22.2138 70.9904 21.6276 71.2572 20.9824C71.5239 20.3374 71.6607 19.6461 71.6599 18.9481L66.3453 24.2622ZM42.8735 80.5782C43.5481 80.5774 44.2232 80.5767 44.8989 80.5767M42.8735 80.5782L44.8989 80.5767M44.8989 80.5767C45.576 80.5767 46.2524 80.5774 46.9281 80.5782M44.8989 80.5767L46.9281 80.5782M46.9281 80.5782C51.7891 80.5835 56.6199 80.5889 61.4817 80.3154L46.9281 80.5782ZM84.3086 23.8467L84.3088 23.8506C84.5815 28.6971 84.5762 33.5126 84.5708 38.375C84.5701 39.0509 84.5693 39.7277 84.5693 40.4056C84.5693 41.1641 84.5704 41.9212 84.5715 42.6771C84.5786 47.4582 84.5856 52.1938 84.3088 56.9596L84.3086 56.9644C84.0001 63.334 82.5623 68.8891 77.9721 73.4793C73.3919 78.0597 67.8267 79.5074 61.4575 79.8159L61.4536 79.8161C56.6071 80.0888 51.7916 80.0835 46.9292 80.0782C46.2534 80.0774 45.5767 80.0767 44.8989 80.0767C44.2225 80.0767 43.5469 80.0774 42.8722 80.0782C38.0164 80.0835 33.1996 80.0888 28.3443 79.8161L28.3404 79.8159C21.971 79.5074 16.4159 78.0696 11.8258 73.4793C7.24556 68.8991 5.7978 63.3337 5.48931 56.9644L5.48909 56.9605C5.21641 52.1138 5.22173 47.2903 5.22709 42.4325C5.22783 41.7576 5.22858 41.082 5.22858 40.4056C5.22858 39.729 5.22783 39.0535 5.22709 38.3787C5.22173 33.5228 5.21642 28.706 5.48909 23.8506L5.48911 23.8506L5.48929 23.8467C5.79781 17.4771 7.23561 11.922 11.8258 7.33175C16.406 2.75145 21.9712 1.30367 28.3404 0.995172L28.3443 0.994953C33.1907 0.722286 38.0061 0.72759 42.8684 0.732945C43.5443 0.733689 44.2211 0.734435 44.8989 0.734435C45.5754 0.734435 46.251 0.73369 46.9258 0.732945C51.7816 0.72759 56.5983 0.722277 61.4536 0.994971L61.4575 0.995157C67.8269 1.30368 73.382 2.7415 77.9721 7.33175C82.5523 11.912 84.0001 17.4774 84.3086 23.8467ZM31.9921 40.4056C31.9921 33.3048 37.7882 27.5085 44.8889 27.5085C51.9895 27.5085 57.7857 33.3048 57.7857 40.4056C57.7857 47.5063 51.9895 53.3026 44.8889 53.3026C37.7882 53.3026 31.9921 47.5063 31.9921 40.4056ZM23.7761 40.4056C23.7761 52.0888 33.2058 61.5187 44.8889 61.5187C56.5719 61.5187 66.0017 52.0888 66.0017 40.4056C66.0017 28.7223 56.5719 19.2924 44.8889 19.2924C33.2058 19.2924 23.7761 28.7223 23.7761 40.4056Z" stroke="#172A3A"/>
</g>
<defs>
<filter id="filter0_d_70_12" x="0.725586" y="0.231445" width="88.3481" height="88.3481" filterUnits="userSpaceOnUse" color-interpolation-filters="sRGB">
<feFlood flood-opacity="0" result="BackgroundImageFix"/>
<feColorMatrix in="SourceAlpha" type="matrix" values="0 0 0 0 0 0 0 0 0 0 0 0 0 0 0 0 0 0 127 0" result="hardAlpha"/>
<feOffset dy="4"/>
<feGaussianBlur stdDeviation="2"/>
<feComposite in2="hardAlpha" operator="out"/>
<feColorMatrix type="matrix" values="0 0 0 0 0 0 0 0 0 0 0 0 0 0 0 0 0 0 0.25 0"/>
<feBlend mode="normal" in2="BackgroundImageFix" result="effect1_dropShadow_70_12"/>
<feBlend mode="normal" in="SourceGraphic" in2="effect1_dropShadow_70_12" result="shape"/>
</filter>
</defs>
</svg>
