<svg width="69" height="70" viewBox="0 0 69 70" fill="none" xmlns="http://www.w3.org/2000/svg">
<path d="M34.436 23.5446C28.1281 23.5446 22.9805 28.6922 22.9805 35C22.9805 41.3078 28.1281 46.4555 34.436 46.4555C40.7438 46.4555 45.8914 41.3078 45.8914 35C45.8914 28.6922 40.7438 23.5446 34.436 23.5446ZM68.7938 35C68.7938 30.2563 68.8367 25.5555 68.5703 20.8203C68.3039 15.3203 67.0492 10.4391 63.0274 6.41722C58.9969 2.38675 54.1242 1.14065 48.6242 0.874248C43.8805 0.607842 39.1797 0.650811 34.4445 0.650811C29.7008 0.650811 25 0.607842 20.2649 0.874248C14.7649 1.14065 9.88361 2.39534 5.86174 6.41722C1.83127 10.4477 0.585173 15.3203 0.318767 20.8203C0.0523607 25.5641 0.0953296 30.2649 0.0953296 35C0.0953296 39.7352 0.0523607 44.4446 0.318767 49.1797C0.585173 54.6797 1.83986 59.561 5.86174 63.5828C9.89221 67.6133 14.7649 68.8594 20.2649 69.1258C25.0086 69.3922 29.7094 69.3493 34.4445 69.3493C39.1883 69.3493 43.8891 69.3922 48.6242 69.1258C54.1242 68.8594 59.0055 67.6047 63.0274 63.5828C67.0578 59.5524 68.3039 54.6797 68.5703 49.1797C68.8453 44.4446 68.7938 39.7438 68.7938 35ZM34.436 52.6258C24.682 52.6258 16.8102 44.7539 16.8102 35C16.8102 25.2461 24.682 17.3742 34.436 17.3742C44.1899 17.3742 52.0617 25.2461 52.0617 35C52.0617 44.7539 44.1899 52.6258 34.436 52.6258ZM52.7836 20.7688C50.5063 20.7688 48.6672 18.9297 48.6672 16.6524C48.6672 14.375 50.5063 12.536 52.7836 12.536C55.061 12.536 56.9 14.375 56.9 16.6524C56.9007 17.1931 56.7947 17.7287 56.5881 18.2285C56.3814 18.7282 56.0782 19.1822 55.6959 19.5646C55.3135 19.947 54.8594 20.2502 54.3597 20.4568C53.86 20.6635 53.3244 20.7695 52.7836 20.7688Z" fill="black"/>
</svg>
