<svg width="83" height="82" viewBox="0 0 83 82" fill="none" xmlns="http://www.w3.org/2000/svg">
<path fill-rule="evenodd" clip-rule="evenodd" d="M82.436 41C82.436 63.6423 64.0783 82 41.436 82C18.7938 82 0.436035 63.6423 0.436035 41C0.436035 18.3578 18.7938 0 41.436 0C64.0783 0 82.436 18.3578 82.436 41ZM67.7034 37.7815C68.3662 38.7279 68.742 39.8452 68.783 41C68.8009 42.1298 68.4985 43.2415 67.9108 44.2066C67.323 45.1716 66.474 45.9505 65.462 46.453C65.5099 47.0543 65.5099 47.6557 65.462 48.257C65.462 57.441 54.761 64.903 41.559 64.903C28.357 64.903 17.656 57.441 17.656 48.257C17.6099 47.6566 17.6099 47.0534 17.656 46.453C16.8742 46.087 16.1809 45.5561 15.6238 44.8967C15.0666 44.2373 14.6589 43.4651 14.4286 42.6331C14.1982 41.8011 14.1508 40.9292 14.2895 40.0771C14.4282 39.2251 14.7497 38.4132 15.232 37.6972C15.7143 36.9813 16.3459 36.3783 17.0834 35.9296C17.8209 35.4809 18.6469 35.1973 19.5044 35.0982C20.3619 34.999 21.2308 35.0868 22.0512 35.3554C22.8716 35.6239 23.6241 36.067 24.257 36.654C28.9814 33.45 34.5394 31.697 40.247 31.611L43.281 17.384C43.3151 17.2193 43.3815 17.063 43.4765 16.9242C43.5714 16.7853 43.6929 16.6667 43.834 16.5752C43.9751 16.4836 44.133 16.421 44.2985 16.391C44.464 16.3609 44.6338 16.364 44.798 16.4L54.843 18.409C55.3336 17.5662 56.1085 16.9258 57.0286 16.6029C57.9487 16.2799 58.9539 16.2955 59.8636 16.6468C60.7733 16.9981 61.528 17.6621 61.9922 18.5197C62.4564 19.3773 62.5997 20.3723 62.3965 21.326C62.1932 22.2798 61.6567 23.1299 60.8831 23.7237C60.1096 24.3175 59.1497 24.6162 58.1758 24.566C57.202 24.5159 56.2778 24.1204 55.5693 23.4503C54.8608 22.7802 54.4143 21.8796 54.31 20.91L45.536 19.065L42.871 31.857C48.5094 31.978 53.992 33.7295 58.656 36.9C59.2787 36.3014 60.0235 35.8446 60.8394 35.5612C61.6553 35.2778 62.523 35.1744 63.3826 35.2582C64.2423 35.342 65.0736 35.6109 65.8195 36.0465C66.5653 36.482 67.208 37.0739 67.7034 37.7815ZM28.4732 42.8211C28.1739 43.2689 27.9658 43.7712 27.8607 44.2994C27.7555 44.8277 27.7555 45.3714 27.8605 45.8997C28.0726 46.9665 28.6998 47.9054 29.6041 48.5098C30.5085 49.1142 31.6159 49.3346 32.6827 49.1226C33.211 49.0175 33.7134 48.8095 34.1612 48.5103C34.6091 48.2112 34.9936 47.8267 35.2929 47.3789C35.8973 46.4746 36.1177 45.3672 35.9056 44.3003C35.6935 43.2335 35.0663 42.2946 34.162 41.6902C33.2576 41.0858 32.1502 40.8654 31.0834 41.0774C30.0165 41.2895 29.0776 41.9167 28.4732 42.8211ZM41.477 59.532C45.1158 59.6823 48.6965 58.7325 51.604 56.539C51.8215 56.327 51.9459 56.0372 51.9497 55.7335C51.9535 55.4298 51.8366 55.137 51.6245 54.9195C51.5195 54.8118 51.3944 54.7259 51.2562 54.6666C51.118 54.6073 50.9694 54.5757 50.819 54.5738C50.5153 54.57 50.2225 54.687 50.005 54.899C47.5168 56.684 44.4938 57.5663 41.436 57.4C38.382 57.5365 35.3731 56.6251 32.908 54.817C32.6956 54.6427 32.4259 54.5536 32.1514 54.567C31.877 54.5805 31.6173 54.6956 31.423 54.8899C31.2286 55.0843 31.1136 55.3439 31.1001 55.6184C31.0866 55.8929 31.1757 56.1626 31.35 56.375C34.2589 58.5671 37.8378 59.6828 41.477 59.532ZM48.5871 48.6738C49.2636 49.1248 50.0153 49.528 50.825 49.528C51.3811 49.5345 51.9327 49.4277 52.4462 49.2141C52.9596 49.0006 53.4242 48.6847 53.8117 48.2857C54.1991 47.8868 54.5013 47.4131 54.6997 46.8936C54.8982 46.3741 54.9888 45.8197 54.966 45.264C54.9658 44.5558 54.7821 43.8597 54.4328 43.2436C54.0836 42.6275 53.5807 42.1124 52.9732 41.7484C52.3656 41.3844 51.6742 41.1841 50.9662 41.1668C50.2582 41.1495 49.5578 41.3158 48.9332 41.6497C48.3086 41.9836 47.7812 42.4735 47.4023 43.0718C47.0233 43.6702 46.8059 44.3564 46.771 45.0638C46.7362 45.7711 46.8851 46.4754 47.2034 47.1081C47.5217 47.7408 47.9984 48.2802 48.5871 48.6738Z" fill="black"/>
</svg>
