<svg width="90" height="89" viewBox="0 0 90 89" fill="none" xmlns="http://www.w3.org/2000/svg">
<g filter="url(#filter0_d_70_15)">
<path fill-rule="evenodd" clip-rule="evenodd" d="M85.003 40.407C85.003 62.5932 67.015 80.5811 44.8289 80.5811C22.6427 80.5811 4.65479 62.5932 4.65479 40.407C4.65479 18.2209 22.6427 0.23291 44.8289 0.23291C67.015 0.23291 85.003 18.2209 85.003 40.407ZM70.5671 37.2533C71.2166 38.1807 71.5848 39.2754 71.625 40.407C71.6425 41.514 71.3462 42.6034 70.7703 43.549C70.1944 44.4946 69.3625 45.2577 68.3709 45.7502C68.4178 46.3394 68.4178 46.9286 68.3709 47.5178C68.3709 56.5168 57.8855 63.8285 44.9494 63.8285C32.0134 63.8285 21.5279 56.5168 21.5279 47.5178C21.4827 46.9295 21.4827 46.3385 21.5279 45.7502C20.7618 45.3916 20.0825 44.8713 19.5366 44.2252C18.9907 43.5791 18.5911 42.8224 18.3655 42.0072C18.1398 41.192 18.0933 40.3376 18.2292 39.5027C18.3651 38.6679 18.6802 37.8723 19.1527 37.1708C19.6253 36.4693 20.2442 35.8784 20.9668 35.4388C21.6895 34.9991 22.4988 34.7212 23.339 34.6241C24.1793 34.5269 25.0306 34.6129 25.8345 34.8761C26.6384 35.1392 27.3758 35.5733 27.9959 36.1486C32.6251 33.0091 38.0711 31.2915 43.6638 31.2071L46.6367 17.2667C46.6701 17.1053 46.7352 16.9522 46.8282 16.8161C46.9212 16.6801 47.0403 16.5639 47.1786 16.4742C47.3168 16.3845 47.4715 16.3231 47.6337 16.2937C47.7958 16.2642 47.9622 16.2672 48.1232 16.3026L57.9658 18.2711C58.4465 17.4453 59.2058 16.8178 60.1074 16.5013C61.009 16.1849 61.9939 16.2001 62.8852 16.5443C63.7766 16.8886 64.5161 17.5393 64.9709 18.3796C65.4258 19.2199 65.5663 20.1948 65.3671 21.1294C65.1679 22.0639 64.6422 22.8969 63.8842 23.4787C63.1263 24.0606 62.1858 24.3532 61.2315 24.3041C60.2772 24.255 59.3717 23.8674 58.6775 23.2108C57.9832 22.5543 57.5458 21.6718 57.4436 20.7217L48.8463 18.9139L46.235 31.4482C51.7597 31.5667 57.1319 33.283 61.702 36.3896C62.3121 35.803 63.042 35.3555 63.8414 35.0778C64.6409 34.8001 65.491 34.6988 66.3334 34.7809C67.1757 34.863 67.9903 35.1264 68.7211 35.5532C69.452 35.98 70.0817 36.56 70.5671 37.2533ZM32.1272 42.1914C31.8339 42.6302 31.63 43.1224 31.527 43.64C31.424 44.1576 31.4239 44.6904 31.5268 45.208C31.7346 46.2534 32.3492 47.1733 33.2353 47.7656C34.1214 48.3578 35.2065 48.5738 36.2519 48.366C36.7695 48.2631 37.2618 48.0592 37.7006 47.7661C38.1394 47.4729 38.5162 47.0962 38.8095 46.6574C39.4017 45.7713 39.6177 44.6862 39.4098 43.6409C39.202 42.5955 38.5875 41.6755 37.7013 41.0833C36.8152 40.491 35.7301 40.2751 34.6848 40.4829C33.6394 40.6907 32.7194 41.3053 32.1272 42.1914ZM44.8691 58.5657C48.4345 58.713 51.9431 57.7823 54.7921 55.633C55.0052 55.4252 55.127 55.1413 55.1308 54.8437C55.1345 54.5461 55.0199 54.2592 54.8122 54.0461C54.7093 53.9406 54.5866 53.8564 54.4512 53.7983C54.3158 53.7402 54.1702 53.7093 54.0229 53.7074C53.7253 53.7037 53.4384 53.8183 53.2253 54.026C50.7871 55.7751 47.8251 56.6396 44.8289 56.4767C41.8364 56.6104 38.8881 55.7174 36.4727 53.9457C36.2645 53.7749 36.0003 53.6876 35.7313 53.7008C35.4624 53.714 35.2079 53.8268 35.0175 54.0172C34.8271 54.2076 34.7143 54.462 34.7011 54.7309C34.6879 54.9999 34.7752 55.2642 34.9461 55.4723C37.7963 57.6202 41.3032 58.7135 44.8691 58.5657ZM51.8359 47.9263C52.4988 48.3682 53.2353 48.7632 54.0288 48.7632C54.5736 48.7696 55.1141 48.665 55.6172 48.4557C56.1204 48.2464 56.5756 47.9369 56.9552 47.546C57.3349 47.1551 57.631 46.691 57.8254 46.1819C58.0199 45.6729 58.1087 45.1296 58.0863 44.5851C58.0861 43.8912 57.9061 43.2091 57.5639 42.6054C57.2216 42.0018 56.7289 41.497 56.1336 41.1404C55.5383 40.7837 54.8608 40.5874 54.1671 40.5704C53.4733 40.5535 52.787 40.7165 52.175 41.0436C51.563 41.3708 51.0462 41.8509 50.6749 42.4371C50.3036 43.0234 50.0905 43.6958 50.0564 44.3889C50.0222 45.082 50.1682 45.7721 50.4801 46.3921C50.7919 47.012 51.2591 47.5406 51.8359 47.9263Z" fill="#FDB833"/>
<path d="M72.1247 40.3893L72.1251 40.3991C72.144 41.6005 71.8224 42.7828 71.1974 43.8091C70.6309 44.7392 69.8361 45.5068 68.8909 46.0403C68.9164 46.5394 68.9098 47.0386 68.8709 47.5377C68.8632 52.2384 66.1211 56.4455 61.797 59.4581C57.465 62.4761 51.507 64.3285 44.9494 64.3285C38.3918 64.3285 32.4338 62.4761 28.1018 59.4581C23.7775 56.4454 21.0354 52.238 21.0279 47.537C20.9906 47.0417 20.9841 46.5446 21.0082 46.0487C20.3022 45.6703 19.673 45.1614 19.1546 44.5479C18.5622 43.8466 18.1285 43.0254 17.8836 42.1406C17.6386 41.2559 17.5882 40.3285 17.7357 39.4224C17.8832 38.5163 18.2251 37.6528 18.738 36.8914C19.251 36.13 19.9227 35.4887 20.707 35.0116C21.4913 34.5345 22.3696 34.2328 23.2816 34.1274C24.1936 34.022 25.1176 34.1153 25.9901 34.4009C26.7362 34.6451 27.4296 35.0251 28.0357 35.5205C32.5645 32.5356 37.8358 30.8718 43.2574 30.7159L46.1471 17.1654C46.1472 17.165 46.1473 17.1645 46.1474 17.164C46.1943 16.9384 46.2854 16.7242 46.4154 16.534C46.5458 16.3433 46.7127 16.1804 46.9065 16.0547C47.1002 15.929 47.317 15.843 47.5443 15.8017C47.7699 15.7608 48.0013 15.7646 48.2254 15.8131L57.7285 17.7137C58.269 16.9361 59.0424 16.3452 59.9418 16.0295C60.9556 15.6737 62.063 15.6908 63.0653 16.0779C64.0677 16.465 64.8992 17.1967 65.4107 18.1416C65.9221 19.0865 66.0801 20.1827 65.8561 21.2336C65.6322 22.2844 65.041 23.2211 64.1887 23.8753C63.3364 24.5296 62.2788 24.8587 61.2058 24.8034C60.1328 24.7482 59.1146 24.3124 58.3339 23.5741C57.6428 22.9205 57.178 22.0678 57.0007 21.1395L49.2336 19.5063L46.8459 30.9674C52.1248 31.1896 57.2453 32.845 61.6568 35.7575C62.2529 35.2533 62.9377 34.8624 63.6774 34.6055C64.545 34.3041 65.4677 34.1942 66.3819 34.2832C67.2961 34.3723 68.1801 34.6583 68.9733 35.1215C69.7664 35.5847 70.4499 36.2141 70.9766 36.9665L72.1247 40.3893ZM72.1247 40.3893C72.0811 39.1608 71.6813 37.9727 70.9767 36.9666L72.1247 40.3893ZM44.8897 58.0661L44.869 58.0653L44.8484 58.0661C41.4209 58.2081 38.0498 57.1653 35.3018 55.1141C35.2301 55.0092 35.1943 54.8833 35.2005 54.7555C35.2077 54.6105 35.2684 54.4734 35.3711 54.3707C35.4737 54.2681 35.6109 54.2073 35.7558 54.2002C35.9008 54.193 36.0433 54.2401 36.1555 54.3322L36.166 54.3408L36.177 54.3489C38.6776 56.1831 41.7286 57.11 44.8264 56.9772C47.9279 57.1403 50.9928 56.2429 53.5167 54.4323L53.5473 54.4104L53.5743 54.384C53.6925 54.2688 53.8516 54.2053 54.0165 54.2074C54.0983 54.2084 54.1789 54.2255 54.254 54.2578C54.3291 54.29 54.3971 54.3367 54.4542 54.3952C54.5694 54.5133 54.6329 54.6724 54.6308 54.8374C54.6288 54.9933 54.5684 55.1424 54.4622 55.2555C51.7229 57.3105 48.3438 58.2088 44.8897 58.0661ZM54.0346 48.2633V48.2632H54.0288C53.394 48.2632 52.7646 47.9445 52.1133 47.5102C51.6085 47.1726 51.1997 46.7099 50.9267 46.1674C50.6537 45.6246 50.5259 45.0204 50.5558 44.4135C50.5857 43.8067 50.7723 43.2179 51.0974 42.7046C51.4224 42.1913 51.8749 41.771 52.4108 41.4846C52.9466 41.1982 53.5475 41.0554 54.1549 41.0703C54.7622 41.0851 55.3554 41.257 55.8766 41.5693C56.3978 41.8815 56.8293 42.3235 57.1289 42.852C57.4285 43.3806 57.5861 43.9777 57.5863 44.5853L57.5863 44.5955L57.5868 44.6056C57.6063 45.0822 57.5286 45.5579 57.3583 46.0035C57.1881 46.4491 56.9289 46.8554 56.5966 47.1976C56.2642 47.5399 55.8657 47.8108 55.4252 47.994C54.9848 48.1772 54.5116 48.2688 54.0346 48.2633ZM84.503 40.407C84.503 62.317 66.7389 80.0811 44.8289 80.0811C22.9189 80.0811 5.15479 62.317 5.15479 40.407C5.15479 18.497 22.9189 0.73291 44.8289 0.73291C66.7389 0.73291 84.503 18.497 84.503 40.407ZM32.0174 43.7376C32.1075 43.2844 32.2861 42.8534 32.5429 42.4692C33.0614 41.6934 33.867 41.1553 34.7822 40.9733C35.6975 40.7913 36.6476 40.9804 37.4235 41.499C38.1994 42.0175 38.7375 42.8231 38.9194 43.7383C39.1014 44.6536 38.9123 45.6037 38.3938 46.3796C38.137 46.7638 37.8071 47.0936 37.4229 47.3503C37.0386 47.607 36.6076 47.7854 36.1544 47.8755C35.2391 48.0575 34.289 47.8684 33.5131 47.3499C32.7373 46.8313 32.1992 46.0258 32.0172 45.1105C31.9271 44.6573 31.9272 44.1908 32.0174 43.7376Z" stroke="#172A3A"/>
</g>
<defs>
<filter id="filter0_d_70_15" x="0.654785" y="0.23291" width="88.3481" height="88.3481" filterUnits="userSpaceOnUse" color-interpolation-filters="sRGB">
<feFlood flood-opacity="0" result="BackgroundImageFix"/>
<feColorMatrix in="SourceAlpha" type="matrix" values="0 0 0 0 0 0 0 0 0 0 0 0 0 0 0 0 0 0 127 0" result="hardAlpha"/>
<feOffset dy="4"/>
<feGaussianBlur stdDeviation="2"/>
<feComposite in2="hardAlpha" operator="out"/>
<feColorMatrix type="matrix" values="0 0 0 0 0 0 0 0 0 0 0 0 0 0 0 0 0 0 0.25 0"/>
<feBlend mode="normal" in2="BackgroundImageFix" result="effect1_dropShadow_70_15"/>
<feBlend mode="normal" in="SourceGraphic" in2="effect1_dropShadow_70_15" result="shape"/>
</filter>
</defs>
</svg>
