<svg xmlns="http://www.w3.org/2000/svg" width="60" height="63" fill="none" viewBox="0 0 60 63">
  <g filter="url(#a)">
    <path fill="#FDB833" d="M54.283 26.2 48.7 24.533a19.423 19.423 0 0 0-1.583-3.883l2.733-5.117a1.016 1.016 0 0 0-.183-1.2l-3.984-4a1.017 1.017 0 0 0-1.2-.183L39.4 12.867a19.367 19.367 0 0 0-3.933-1.667L33.8 5.683A1.017 1.017 0 0 0 32.817 5h-5.634a1.017 1.017 0 0 0-.966.717l-1.667 5.5c-1.38.406-2.71.965-3.967 1.666l-5-2.7a1.017 1.017 0 0 0-1.2.184l-4.05 3.95a1.016 1.016 0 0 0-.183 1.2l2.7 5a19.378 19.378 0 0 0-1.667 3.95l-5.516 1.666a1.017 1.017 0 0 0-.717.967v5.633a1.017 1.017 0 0 0 .717.967l5.55 1.667a19.369 19.369 0 0 0 1.666 3.883l-2.733 5.233a1.016 1.016 0 0 0 .183 1.2l3.984 3.984a1.017 1.017 0 0 0 1.2.183l5.15-2.75a19.419 19.419 0 0 0 3.833 1.567l1.667 5.616a1.017 1.017 0 0 0 .966.717h5.634a1.017 1.017 0 0 0 .966-.717L35.4 48.65a19.382 19.382 0 0 0 3.8-1.567l5.183 2.767a1.016 1.016 0 0 0 1.2-.183l3.984-3.984a1.016 1.016 0 0 0 .183-1.2l-2.767-5.166a19.39 19.39 0 0 0 1.584-3.817l5.616-1.667a1.016 1.016 0 0 0 .717-.966v-5.684a1.016 1.016 0 0 0-.617-.983ZM30 39.167a9.167 9.167 0 1 1 0-18.334 9.167 9.167 0 0 1 0 18.334Z"/>
  </g>
  <defs>
    <filter id="a" width="68" height="68" x="-4" y="0" color-interpolation-filters="sRGB" filterUnits="userSpaceOnUse">
      <feFlood flood-opacity="0" result="BackgroundImageFix"/>
      <feColorMatrix in="SourceAlpha" result="hardAlpha" values="0 0 0 0 0 0 0 0 0 0 0 0 0 0 0 0 0 0 127 0"/>
      <feOffset dy="4"/>
      <feGaussianBlur stdDeviation="2"/>
      <feColorMatrix values="0 0 0 0 0 0 0 0 0 0 0 0 0 0 0 0 0 0 0.25 0"/>
      <feBlend in2="BackgroundImageFix" result="effect1_dropShadow_121_11"/>
      <feBlend in="SourceGraphic" in2="effect1_dropShadow_121_11" result="shape"/>
    </filter>
  </defs>
</svg>
