<svg xmlns="http://www.w3.org/2000/svg" width="60" height="60" fill="none" viewBox="0 0 60 60">
  <g clip-path="url(#a)" filter="url(#b)">
    <path fill="#FDB833" d="M59.108 12.342a23.32 23.32 0 0 1-6.688 1.833 11.675 11.675 0 0 0 5.12-6.445 23.25 23.25 0 0 1-7.395 2.825A11.65 11.65 0 0 0 30.3 21.18 33.072 33.072 0 0 1 6.295 9.01a11.64 11.64 0 0 0-1.575 5.855A11.65 11.65 0 0 0 9.9 24.56a11.616 11.616 0 0 1-5.275-1.458v.15a11.65 11.65 0 0 0 9.342 11.42 11.73 11.73 0 0 1-5.26.2 11.653 11.653 0 0 0 10.88 8.086 23.37 23.37 0 0 1-14.464 4.987c-.93 0-1.858-.054-2.78-.163a32.937 32.937 0 0 0 17.85 5.233c21.424 0 33.137-17.745 33.137-33.135 0-.5-.012-1.005-.035-1.505a23.671 23.671 0 0 0 5.807-6.025l.006-.008Z"/>
  </g>
  <defs>
    <clipPath id="a">
      <path fill="#fff" d="M0 0h60v60H0z"/>
    </clipPath>
    <filter id="b" width="64.765" height="54.146" x="-1.657" y="6.869" color-interpolation-filters="sRGB" filterUnits="userSpaceOnUse">
      <feFlood flood-opacity="0" result="BackgroundImageFix"/>
      <feColorMatrix in="SourceAlpha" result="hardAlpha" values="0 0 0 0 0 0 0 0 0 0 0 0 0 0 0 0 0 0 127 0"/>
      <feOffset dy="4"/>
      <feGaussianBlur stdDeviation="2"/>
      <feComposite in2="hardAlpha" operator="out"/>
      <feColorMatrix values="0 0 0 0 0 0 0 0 0 0 0 0 0 0 0 0 0 0 0.25 0"/>
      <feBlend in2="BackgroundImageFix" result="effect1_dropShadow_364_14"/>
      <feBlend in="SourceGraphic" in2="effect1_dropShadow_364_14" result="shape"/>
    </filter>
  </defs>
</svg>
