<svg width="89" height="76" viewBox="0 0 89 76" fill="none" xmlns="http://www.w3.org/2000/svg">
<g filter="url(#filter0_d_70_13)">
<path d="M84.4659 8.86955C81.5111 10.2117 78.337 11.1186 75 11.5285C78.4431 9.41654 81.0191 6.09264 82.2472 2.17696C79.0123 4.14661 75.4719 5.53303 71.7799 6.27595C69.2971 3.55852 66.0086 1.75736 62.4249 1.15212C58.8412 0.546876 55.1628 1.17141 51.9608 2.92875C48.7589 4.6861 46.2125 7.47793 44.717 10.8708C43.2215 14.2637 42.8605 18.0678 43.6902 21.6925C37.1356 21.3551 30.7233 19.6087 24.8697 16.5666C19.0161 13.5245 13.8519 9.25464 9.71226 4.0342C8.2968 6.53712 7.48292 9.43906 7.48292 12.5296C7.48134 15.3118 8.14971 18.0514 9.42874 20.5053C10.7078 22.9593 12.5579 25.0516 14.815 26.5968C12.1974 26.5114 9.6375 25.7863 7.34845 24.482V24.6996C7.34818 28.6018 8.66494 32.3839 11.0753 35.4041C13.4856 38.4244 16.8411 40.4968 20.5723 41.2697C18.1441 41.9433 15.5982 42.0426 13.127 41.5599C14.1798 44.9175 16.2304 47.8535 18.9919 49.9571C21.7533 52.0606 25.0873 53.2263 28.5272 53.2909C22.6878 57.9899 15.4763 60.5389 8.05264 60.5276C6.73761 60.528 5.4237 60.4493 4.11768 60.2919C11.6531 65.2584 20.4249 67.8943 29.3835 67.8841C59.7096 67.8841 76.2881 42.1366 76.2881 19.8062C76.2881 19.0807 76.2704 18.348 76.2386 17.6225C79.4633 15.232 82.2468 12.2717 84.4588 8.88043L84.4659 8.86955Z" fill="black"/>
</g>
<defs>
<filter id="filter0_d_70_13" x="0.117676" y="0.927246" width="88.3481" height="74.9568" filterUnits="userSpaceOnUse" color-interpolation-filters="sRGB">
<feFlood flood-opacity="0" result="BackgroundImageFix"/>
<feColorMatrix in="SourceAlpha" type="matrix" values="0 0 0 0 0 0 0 0 0 0 0 0 0 0 0 0 0 0 127 0" result="hardAlpha"/>
<feOffset dy="4"/>
<feGaussianBlur stdDeviation="2"/>
<feComposite in2="hardAlpha" operator="out"/>
<feColorMatrix type="matrix" values="0 0 0 0 0 0 0 0 0 0 0 0 0 0 0 0 0 0 0.25 0"/>
<feBlend mode="normal" in2="BackgroundImageFix" result="effect1_dropShadow_70_13"/>
<feBlend mode="normal" in="SourceGraphic" in2="effect1_dropShadow_70_13" result="shape"/>
</filter>
</defs>
</svg>
