<svg width="99" height="70" viewBox="0 0 99 70" fill="none" xmlns="http://www.w3.org/2000/svg">
<g filter="url(#filter0_i_50_136)">
<path d="M83.5773 30.634C81.4287 13.7108 66.9393 0.583313 49.436 0.583313C35.8856 0.583313 24.1151 8.50406 18.7412 20.9875C8.1802 24.144 0.269287 34.115 0.269287 44.8333C0.269287 58.3886 11.2974 69.4167 24.8526 69.4167H78.936C89.7821 69.4167 98.6026 60.5962 98.6026 49.75C98.5951 45.3427 97.1111 41.0651 94.3875 37.6001C91.664 34.1351 87.858 31.6825 83.5773 30.634ZM54.3526 44.8333V59.5833H44.5193V44.8333H29.7693L49.436 20.25L69.1026 44.8333H54.3526Z" fill="#FDB833"/>
</g>
<path d="M83.0813 30.697L83.1246 31.0379L83.4583 31.1196C87.6305 32.1415 91.34 34.5319 93.9944 37.9091C96.6489 41.2862 98.0953 45.4554 98.1026 49.7508C98.1022 60.3205 89.5057 68.9167 78.936 68.9167H24.8526C11.5735 68.9167 0.769287 58.1124 0.769287 44.8333C0.769287 34.3543 8.51706 24.5652 18.8844 21.4665L19.1081 21.3997L19.2005 21.1852C24.4973 8.88072 36.0902 1.08331 49.436 1.08331C66.6841 1.08331 80.964 14.0202 83.0813 30.697ZM29.7693 45.3333H44.0193V59.5833V60.0833H44.5193H54.3526H54.8526V59.5833V45.3333H69.1026H70.1429L69.4931 44.521L49.8264 19.9376L49.436 19.4496L49.0455 19.9376L29.3789 44.521L28.729 45.3333H29.7693Z" stroke="#172A3A"/>
<defs>
<filter id="filter0_i_50_136" x="0.269287" y="0.583313" width="98.3333" height="72.8333" filterUnits="userSpaceOnUse" color-interpolation-filters="sRGB">
<feFlood flood-opacity="0" result="BackgroundImageFix"/>
<feBlend mode="normal" in="SourceGraphic" in2="BackgroundImageFix" result="shape"/>
<feColorMatrix in="SourceAlpha" type="matrix" values="0 0 0 0 0 0 0 0 0 0 0 0 0 0 0 0 0 0 127 0" result="hardAlpha"/>
<feOffset dy="4"/>
<feGaussianBlur stdDeviation="2"/>
<feComposite in2="hardAlpha" operator="arithmetic" k2="-1" k3="1"/>
<feColorMatrix type="matrix" values="0 0 0 0 0 0 0 0 0 0 0 0 0 0 0 0 0 0 0.25 0"/>
<feBlend mode="normal" in2="shape" result="effect1_innerShadow_50_136"/>
</filter>
</defs>
</svg>
