<svg xmlns="http://www.w3.org/2000/svg" width="60" height="60" fill="none" viewBox="0 0 60 60">
  <path fill="#FDB833" d="M50.233 5a1.667 1.667 0 0 0-1.666-1.667H11.9A1.667 1.667 0 0 0 10.233 5v1.667h40V5Zm3.3 6.667A1.666 1.666 0 0 0 51.867 10H8.533a1.667 1.667 0 0 0-1.666 1.667v1.666h46.666v-1.666Zm0 5H6.467A3.133 3.133 0 0 0 3.333 19.8v30.4a3.133 3.133 0 0 0 3.134 3.133h47.066a3.133 3.133 0 0 0 3.134-3.133V19.8a3.133 3.133 0 0 0-3.134-3.133Zm-39.266 5.75a5 5 0 1 1 0 10 5 5 0 0 1 0-10ZM50 46.667H10l12.433-12.45a1.183 1.183 0 0 1 1.667 0l6.133 6.133 8.45-8.683a1.183 1.183 0 0 1 1.667 0l9.65 9.65v5.35Z"/>
</svg>
