<svg xmlns="http://www.w3.org/2000/svg" width="62" height="64" fill="none" viewBox="0 0 62 64">
  <g filter="url(#a)">
    <path fill="#FDB833" d="M56.459 29.59 32.324 5.473a1.871 1.871 0 0 0-2.648 0L5.54 29.59a3.757 3.757 0 0 0-1.102 2.654 3.754 3.754 0 0 0 3.75 3.75h2.543v17.21c0 1.036.838 1.874 1.875 1.874H27.25V41.953h6.563v13.125h15.58a1.873 1.873 0 0 0 1.875-1.875V35.994h2.542c.997 0 1.952-.392 2.655-1.102a3.754 3.754 0 0 0-.006-5.302Z"/>
  </g>
  <defs>
    <filter id="a" width="68" height="68" x="-3" y="0" color-interpolation-filters="sRGB" filterUnits="userSpaceOnUse">
      <feFlood flood-opacity="0" result="BackgroundImageFix"/>
      <feColorMatrix in="SourceAlpha" result="hardAlpha" values="0 0 0 0 0 0 0 0 0 0 0 0 0 0 0 0 0 0 127 0"/>
      <feOffset dy="4"/>
      <feGaussianBlur stdDeviation="2"/>
      <feColorMatrix values="0 0 0 0 0 0 0 0 0 0 0 0 0 0 0 0 0 0 0.25 0"/>
      <feBlend in2="BackgroundImageFix" result="effect1_dropShadow_121_14"/>
      <feBlend in="SourceGraphic" in2="effect1_dropShadow_121_14" result="shape"/>
    </filter>
  </defs>
</svg>
